<svg width="400" height="400" viewBox="0 0 400 400" fill="none" xmlns="http://www.w3.org/2000/svg">
<g clip-path="url(#clip0_2336_45430)">
<path d="M102.977 49.5L105.319 51.1451C112.606 56.2157 283.633 175.424 288.404 178.995C295.158 183.736 298.603 189.601 298.603 196.403V199.781C298.526 205.035 296.639 212.428 288.404 218.612L288.375 218.631C284.408 221.466 244.026 249.442 201.274 279.072C197.51 281.681 193.703 284.319 189.887 286.963L187.342 288.727C149.584 314.893 111.692 341.162 106.567 344.787V349.5L103.771 344.797C103.635 344.555 103.51 344.352 103.655 344.023H103.568V319.424C103.568 311.035 104.497 307 113.835 300.777C117.812 298.221 151.873 274.701 186.47 250.761L190.541 247.944C222.421 225.88 253.774 204.143 261.474 198.813C245.217 187.52 123.347 102.916 114.996 96.8002L114.009 96.0841C107.835 91.6134 102.977 88.0911 102.977 78.782V49.5ZM118.789 135.024C127.034 140.326 206.771 195.658 207.574 196.229L209.383 197.478L207.545 198.706C207.545 198.706 202.155 202.297 196.175 206.477C191.056 210.232 186.266 212.109 181.505 212.109C177.276 212.109 173.086 210.638 168.673 207.706C163.973 204.568 150.731 195.433 137.328 186.153L135.5 184.887C119.053 173.497 102.937 162.289 102.639 162.08L102 161.635V142.842C102 138.527 103.858 135.111 107.119 133.456C110.612 131.675 114.977 132.256 118.789 135.024Z" fill="#004CFF"/>
</g>
<defs>
<clipPath id="clip0_2336_45430">
<rect width="300" height="300" fill="white" transform="translate(50 50)"/>
</clipPath>
</defs>
</svg>
