<?xml version="1.0" standalone="no"?>
<!DOCTYPE svg PUBLIC "-//W3C//DTD SVG 20010904//EN"
 "http://www.w3.org/TR/2001/REC-SVG-20010904/DTD/svg10.dtd">
<svg version="1.0" xmlns="http://www.w3.org/2000/svg"
 width="300.000000pt" height="300.000000pt" viewBox="0 0 300.000000 300.000000"
 preserveAspectRatio="xMidYMid meet">

<g transform="translate(0.000000,300.000000) scale(0.100000,-0.100000)"
fill="#000000" stroke="none">
<path d="M660 2993 c-78 -13 -184 -49 -254 -86 -63 -32 -103 -63 -176 -137
-108 -107 -162 -197 -202 -336 l-23 -79 0 -855 0 -855 23 -79 c40 -139 94
-229 202 -336 107 -108 197 -162 336 -202 l79 -23 855 0 855 0 80 23 c136 40
227 94 335 202 108 108 162 199 202 335 l23 80 0 855 0 855 -23 80 c-40 136
-95 227 -202 335 -105 106 -193 159 -330 202 l-75 23 -840 1 c-462 1 -851 0
-865 -3z m1114 -617 c310 -79 502 -291 545 -603 l8 -53 -242 0 -242 0 -12 55
c-41 184 -264 270 -457 175 -148 -73 -213 -233 -201 -499 8 -180 40 -271 124
-353 64 -62 123 -83 233 -83 102 0 137 10 207 57 29 19 51 46 72 90 17 33 31
67 31 75 0 10 46 13 240 13 l240 0 0 -30 c0 -16 -11 -63 -24 -104 -107 -336
-441 -548 -826 -522 -331 22 -562 170 -703 452 -129 258 -123 671 13 934 121
231 322 370 605 416 110 18 269 10 389 -20z"/>
</g>
</svg>
