<?xml version="1.0" standalone="no"?>
<!DOCTYPE svg PUBLIC "-//W3C//DTD SVG 20010904//EN"
 "http://www.w3.org/TR/2001/REC-SVG-20010904/DTD/svg10.dtd">
<svg version="1.0" xmlns="http://www.w3.org/2000/svg"
 width="600.000000pt" height="315.000000pt" viewBox="0 0 600.000000 315.000000"
 preserveAspectRatio="xMidYMid meet">

<g transform="translate(0.000000,315.000000) scale(0.100000,-0.100000)"
fill="#000000" stroke="none">
<path d="M2957 2730 l-27 -21 0 -434 0 -434 22 -15 c34 -24 90 -20 116 7 22
23 22 26 22 444 0 386 -1 423 -17 442 -27 33 -82 38 -116 11z"/>
<path d="M2675 2672 c-11 -2 -30 -13 -42 -25 -23 -20 -23 -23 -23 -308 0 -321
1 -324 71 -335 29 -5 41 -1 65 19 l29 25 -2 292 c-1 195 -6 296 -13 305 -15
18 -60 32 -85 27z"/>
<path d="M3286 2619 l-26 -20 0 -294 0 -294 26 -20 c39 -30 102 -24 126 13 4
6 8 142 8 303 0 288 0 293 -22 313 -28 26 -78 26 -112 -1z"/>
<path d="M2323 2500 c-29 -27 -35 -79 -31 -263 3 -146 4 -158 25 -179 31 -30
84 -30 118 2 l25 23 0 194 c0 193 0 194 -25 218 -30 31 -82 33 -112 5z"/>
<path d="M3635 2493 c-11 -3 -28 -12 -37 -21 -16 -13 -18 -38 -18 -223 l0
-208 26 -20 c36 -28 79 -27 109 4 25 24 25 25 25 223 0 193 -1 199 -22 219
-26 24 -54 32 -83 26z"/>
<path d="M2094 1268 c-42 -20 -44 -41 -44 -462 0 -393 1 -404 21 -430 26 -32
84 -36 120 -7 l24 19 3 399 c2 257 -1 411 -7 434 -15 51 -66 72 -117 47z"/>
<path d="M3813 1256 l-28 -24 0 -422 0 -422 24 -19 c33 -27 92 -25 119 4 22
23 22 26 22 441 l0 417 -25 24 c-31 32 -75 32 -112 1z"/>
<path d="M1790 1203 c-8 -3 -23 -12 -32 -21 -16 -14 -18 -42 -18 -308 l0 -293
26 -20 c36 -28 79 -27 109 4 l25 24 0 283 c-1 297 -1 302 -47 326 -23 13 -39
14 -63 5z"/>
<path d="M3515 1198 c-44 -24 -45 -28 -45 -333 0 -269 1 -293 18 -308 30 -27
73 -30 110 -8 l32 21 0 289 c0 159 -3 297 -6 306 -7 17 -54 45 -76 45 -7 0
-22 -6 -33 -12z"/>
<path d="M2412 1160 c-22 -20 -22 -25 -22 -315 0 -290 0 -295 22 -315 28 -26
78 -26 112 1 l26 20 0 290 0 290 -25 24 c-30 31 -82 33 -113 5z"/>
<path d="M4142 1150 c-22 -20 -22 -25 -22 -310 l0 -289 26 -20 c34 -27 74 -27
108 0 l26 20 0 289 c0 285 0 290 -22 310 -14 12 -35 20 -58 20 -23 0 -44 -8
-58 -20z"/>
<path d="M1435 1035 c-25 -24 -25 -25 -25 -223 0 -195 0 -199 23 -220 29 -28
86 -29 118 -3 24 19 24 21 24 221 l0 202 -28 24 c-37 31 -81 31 -112 -1z"/>
<path d="M3175 1035 c-25 -24 -25 -25 -25 -223 0 -195 0 -199 23 -220 29 -28
86 -29 118 -3 23 19 24 24 27 202 2 100 1 193 -2 205 -16 63 -96 85 -141 39z"/>
<path d="M2754 1030 c-50 -20 -54 -41 -54 -247 0 -179 1 -194 20 -213 48 -48
123 -32 141 29 6 22 9 106 7 213 -3 162 -5 179 -23 197 -25 24 -63 33 -91 21z"/>
<path d="M4463 1006 l-28 -24 -3 -189 c-3 -206 2 -228 52 -251 32 -16 69 -9
96 18 19 19 20 34 20 218 -1 206 -3 217 -47 240 -33 18 -59 14 -90 -12z"/>
</g>
</svg>
