<svg width="720" height="720" viewBox="0 0 720 720" fill="none" xmlns="http://www.w3.org/2000/svg">
<rect width="720" height="720" rx="130" fill="#313F9F"/>
<g clip-path="url(#clip0_306_1152)">
<path d="M421.875 135C345.938 135 281.25 191.25 267.188 267.188C275.625 267.188 286.875 264.375 295.312 264.375C286.875 264.375 275.625 264.375 267.188 267.188C191.25 281.25 135 345.938 135 424.688V585H295.312C371.25 585 435.938 531.562 452.812 455.625H416.25H585V295.312C582.188 205.312 511.875 135 421.875 135ZM264.375 295.312C264.375 306.562 264.375 317.812 267.188 326.25C267.188 315 264.375 306.562 264.375 295.312Z" fill="#135EEB"/>
<path d="M295.312 264.375C286.875 264.375 275.625 264.375 267.187 267.187C267.187 275.625 264.375 286.875 264.375 295.312C264.375 337.5 281.25 379.687 312.188 407.812C343.125 435.937 382.5 455.625 424.688 455.625H452.812C455.625 447.187 455.625 435.938 455.625 424.688C455.625 382.5 438.75 340.312 407.812 312.188C376.875 284.063 337.5 264.375 295.312 264.375Z" fill="#0A60EA"/>
<path d="M424.688 455.625C382.5 455.625 340.312 438.75 312.188 407.812C284.062 376.875 264.375 337.5 264.375 295.312C264.375 286.875 264.375 275.625 267.188 267.188C191.25 281.25 135 345.938 135 424.688V585H295.312C371.25 585 435.938 531.562 452.812 455.625H424.688Z" fill="#15C2FF"/>
<path d="M421.875 135C345.938 135 281.25 191.25 267.188 267.188C275.625 267.188 286.875 264.375 295.312 264.375C343.125 264.375 388.125 286.875 419.063 320.625C450 354.375 461.25 405 452.813 452.812H585V295.312C582.188 205.312 511.875 135 421.875 135Z" fill="#2C82FF"/>
</g>
<defs>
<clipPath id="clip0_306_1152">
<rect width="450" height="450" fill="white" transform="translate(135 135)"/>
</clipPath>
</defs>
</svg>
