<?xml version="1.0"?>
<svg width="16" height="16" xmlns="http://www.w3.org/2000/svg" xmlns:svg="http://www.w3.org/2000/svg" version="1.1">
 <title id="titleID">two letters - AM</title>
 <desc id="descID">AI-generated SVG illustration: two letters - AM, created on https://svgstud.io</desc>
 <metadata>Created by https://svgstud.io and licensed under CC-BY-SA 4.0 license. Please attribute https://svgstud.io</metadata>
 <metadata>two letters - AM</metadata>
 <metadata>7</metadata>
 <metadata>https://svgstud.io</metadata>
 <metadata id="uid">67ac0c67719ab65b7cd98c27b8c96dc8dff848674f9216aadce4c9b94751ed60</metadata>
 <g class="layer">
  <title>Layer 1</title>
  <path d="m14.3,14.09c-0.14,0 -1.03,0 -1.98,-0.01c-1.73,-0.01 -1.73,-0.01 -2.07,-0.17c-0.19,-0.09 -0.36,-0.18 -0.38,-0.2c-0.03,-0.03 -0.04,-0.13 -0.05,-0.51c-0.01,-0.47 -0.01,-0.47 0.07,-0.54c0.04,-0.04 0.11,-0.1 0.15,-0.14c0.08,-0.07 0.08,-0.07 0.08,-1.22c0,-0.88 -0.01,-1.16 -0.03,-1.19c-0.03,-0.04 -0.07,-0.04 -0.35,-0.04c-0.32,0.01 -0.32,0.01 -0.74,1.7c-0.23,0.93 -0.45,1.77 -0.48,1.87c-0.03,0.1 -0.08,0.21 -0.1,0.25c-0.02,0.04 -0.06,0.1 -0.09,0.13c-0.05,0.06 -0.05,0.06 -1.32,0.06c-1.27,0 -1.27,0 -1.72,-0.24c-0.25,-0.13 -0.47,-0.26 -0.48,-0.28c-0.03,-0.03 -0.04,-0.16 -0.04,-0.64c0,-0.6 0,-0.6 0.1,-0.67c0.06,-0.04 0.18,-0.1 0.27,-0.13c0.09,-0.04 0.27,-0.08 0.39,-0.1c0.12,-0.02 0.22,-0.04 0.23,-0.06c0.01,-0.01 -0.05,-0.27 -0.12,-0.56c-0.07,-0.29 -0.14,-0.58 -0.16,-0.63c-0.02,-0.06 -0.06,-0.09 -0.1,-0.1c-0.03,-0.01 -0.48,-0.01 -0.99,-0.02c-0.75,-0.01 -0.93,0 -0.96,0.03c-0.02,0.02 -0.08,0.27 -0.14,0.56c-0.06,0.29 -0.12,0.56 -0.12,0.61c-0.01,0.09 -0.01,0.09 0.64,0.1c0.43,0.01 0.67,0.03 0.71,0.05c0.06,0.03 0.06,0.03 0.05,0.66c-0.01,0.63 -0.01,0.63 -0.59,1.02c-0.58,0.4 -0.58,0.4 -2.07,0.4c-0.82,0 -1.53,0 -1.59,-0.01c-0.09,-0.02 -0.1,-0.03 -0.1,-0.1c0,-0.04 0.01,-0.28 0.02,-0.52c0.01,-0.24 0.02,-0.47 0.03,-0.5c0.01,-0.03 0.08,-0.1 0.21,-0.18c0.11,-0.07 0.3,-0.19 0.42,-0.26c0.14,-0.09 0.24,-0.16 0.26,-0.21c0.02,-0.04 0.12,-0.43 0.23,-0.86c0.1,-0.43 0.23,-0.95 0.29,-1.16c0.06,-0.21 0.25,-0.94 0.42,-1.63c0.17,-0.69 0.34,-1.33 0.37,-1.44c0.03,-0.11 0.1,-0.39 0.17,-0.62c0.06,-0.23 0.16,-0.55 0.2,-0.7c0.05,-0.15 0.11,-0.34 0.14,-0.41c0.03,-0.07 0.1,-0.22 0.15,-0.34c0.06,-0.11 0.14,-0.3 0.19,-0.43c0.05,-0.12 0.14,-0.35 0.19,-0.5c0.05,-0.15 0.14,-0.4 0.2,-0.55c0.06,-0.15 0.15,-0.36 0.2,-0.46c0.05,-0.11 0.1,-0.2 0.11,-0.2c0.01,0 0.09,0.13 0.18,0.29c0.09,0.16 0.19,0.35 0.23,0.44c0.03,0.08 0.12,0.33 0.19,0.55c0.07,0.22 0.2,0.63 0.28,0.93c0.09,0.29 0.16,0.54 0.17,0.56c0.01,0.01 0.02,-0.03 0.03,-0.09c0.01,-0.07 0.02,-0.12 0.03,-0.13c0.01,0 0.04,0.05 0.07,0.11c0.02,0.06 0.08,0.25 0.13,0.42c0.05,0.17 0.14,0.48 0.21,0.7c0.07,0.22 0.19,0.62 0.27,0.89c0.08,0.27 0.18,0.61 0.22,0.75c0.04,0.14 0.15,0.57 0.25,0.97c0.1,0.39 0.22,0.89 0.27,1.1c0.05,0.22 0.14,0.52 0.19,0.69c0.05,0.16 0.17,0.53 0.25,0.83c0.09,0.29 0.19,0.6 0.24,0.69c0.06,0.11 0.11,0.17 0.17,0.2c0.07,0.03 0.15,0.04 0.32,0.04c0.2,0 0.24,0.01 0.3,0.05c0.07,0.05 0.07,0.05 0.09,-0.01c0.01,-0.03 0.05,-0.16 0.09,-0.28c0.04,-0.12 0.09,-0.32 0.12,-0.44c0.03,-0.13 0.12,-0.57 0.2,-0.98c0.08,-0.41 0.21,-1.11 0.28,-1.54c0.07,-0.43 0.14,-0.87 0.15,-0.98c0.01,-0.1 0.04,-0.36 0.07,-0.57c0.02,-0.21 0.06,-0.52 0.08,-0.69c0.02,-0.17 0.07,-0.49 0.1,-0.71c0.03,-0.22 0.09,-0.56 0.12,-0.75c0.03,-0.19 0.1,-0.53 0.14,-0.76c0.04,-0.23 0.12,-0.67 0.17,-0.97c0.05,-0.3 0.12,-0.64 0.15,-0.76c0.03,-0.12 0.09,-0.27 0.13,-0.34c0.04,-0.07 0.06,-0.14 0.05,-0.16c-0.01,-0.03 -0.03,-0.03 -0.13,0c-0.06,0.02 -0.17,0.07 -0.24,0.12c-0.07,0.05 -0.19,0.14 -0.26,0.21c-0.07,0.07 -0.19,0.2 -0.25,0.29c-0.06,0.09 -0.14,0.23 -0.17,0.32c-0.03,0.09 -0.1,0.29 -0.14,0.45c-0.04,0.16 -0.12,0.42 -0.17,0.57c-0.05,0.15 -0.1,0.28 -0.11,0.29c-0.01,0.01 -0.03,-0.03 -0.04,-0.08c-0.01,-0.05 -0.01,-0.26 0,-0.47c0.01,-0.24 0.01,-0.38 -0.01,-0.38c-0.01,0 -0.08,0.03 -0.14,0.07c-0.06,0.04 -0.13,0.1 -0.15,0.13c-0.02,0.04 -0.06,0.19 -0.1,0.35c-0.04,0.15 -0.11,0.49 -0.15,0.75c-0.05,0.26 -0.14,0.77 -0.2,1.15c-0.06,0.37 -0.12,0.75 -0.12,0.83c0,0.1 0.01,0.15 0.03,0.14c0.01,-0.01 0.05,-0.06 0.08,-0.12c0.04,-0.07 0.06,-0.09 0.07,-0.07c0.01,0.02 0.05,-0.02 0.13,-0.14c0.06,-0.1 0.15,-0.24 0.21,-0.32c0.05,-0.08 0.1,-0.15 0.12,-0.15c0.01,0 0.03,0.01 0.03,0.03c0,0.01 -0.01,0.14 -0.03,0.27c-0.01,0.14 -0.05,0.41 -0.08,0.61c-0.03,0.2 -0.05,0.39 -0.04,0.41c0.01,0.04 0.03,0.02 0.11,-0.09c0.06,-0.08 0.11,-0.14 0.12,-0.14c0.01,0 0.02,0.03 0.02,0.07c0,0.04 -0.05,0.35 -0.11,0.68c-0.06,0.33 -0.14,0.74 -0.18,0.91c-0.04,0.17 -0.1,0.46 -0.15,0.65c-0.05,0.19 -0.1,0.39 -0.12,0.44c-0.02,0.06 -0.05,0.1 -0.07,0.1c-0.02,0 -0.06,-0.06 -0.08,-0.14c-0.03,-0.08 -0.11,-0.35 -0.19,-0.61c-0.08,-0.26 -0.2,-0.72 -0.28,-1.02c-0.08,-0.3 -0.35,-1.24 -0.6,-2.08c-0.25,-0.85 -0.49,-1.66 -0.54,-1.82c-0.05,-0.15 -0.18,-0.58 -0.3,-0.94c-0.12,-0.36 -0.28,-0.9 -0.37,-1.19c-0.09,-0.29 -0.18,-0.56 -0.2,-0.59c-0.04,-0.06 -0.04,-0.06 -0.68,-0.06c-0.35,0 -0.72,0.01 -0.81,0.03c-0.09,0.01 -0.18,0.04 -0.19,0.05c-0.02,0.01 -0.08,0.16 -0.14,0.32c-0.06,0.16 -0.14,0.37 -0.18,0.45c-0.04,0.09 -0.07,0.13 -0.07,0.1c0,-0.03 0.01,-0.15 0.03,-0.26c0.02,-0.12 0.06,-0.3 0.09,-0.41c0.03,-0.11 0.08,-0.23 0.11,-0.27c0.03,-0.04 0.11,-0.09 0.19,-0.13c0.08,-0.03 0.21,-0.08 0.29,-0.1c0.11,-0.03 0.33,-0.04 0.81,-0.04c0.37,0 0.71,0.01 0.78,0.03c0.07,0.01 0.16,0.05 0.19,0.08c0.03,0.03 0.08,0.1 0.11,0.16c0.03,0.06 0.12,0.33 0.21,0.6c0.09,0.27 0.22,0.72 0.29,0.99c0.08,0.27 0.21,0.77 0.31,1.11c0.09,0.34 0.22,0.76 0.28,0.95c0.06,0.19 0.12,0.38 0.13,0.43c0.01,0.05 0.03,0.08 0.04,0.08c0.01,0 0.05,-0.05 0.07,-0.11c0.03,-0.06 0.09,-0.27 0.15,-0.46c0.06,-0.2 0.15,-0.53 0.22,-0.74c0.06,-0.21 0.15,-0.54 0.2,-0.73c0.05,-0.19 0.09,-0.38 0.09,-0.41c0,-0.05 -0.02,-0.08 -0.1,-0.11c-0.05,-0.03 -0.16,-0.07 -0.23,-0.09c-0.07,-0.02 -0.14,-0.06 -0.15,-0.09c-0.01,-0.02 -0.01,-0.33 -0.01,-0.68c0.01,-0.63 0.01,-0.63 0.36,-0.97c0.2,-0.19 0.4,-0.36 0.47,-0.39c0.12,-0.06 0.12,-0.06 1.56,-0.04c0.88,0.01 1.49,0.03 1.57,0.04c0.07,0.02 0.22,0.07 0.34,0.12c0.12,0.05 0.21,0.11 0.21,0.13c0,0.02 0,0.16 0,0.31c0,0.15 -0.01,0.31 -0.03,0.34c-0.01,0.03 -0.11,0.15 -0.22,0.25c-0.18,0.17 -0.19,0.19 -0.18,0.27c0.01,0.05 0.06,0.27 0.11,0.49c0.05,0.22 0.12,0.54 0.16,0.7c0.04,0.16 0.09,0.34 0.11,0.39c0.02,0.05 0.05,0.1 0.06,0.1c0.01,0 0.03,-0.09 0.04,-0.21c0.01,-0.12 0.02,-0.51 0.03,-0.88c0.01,-0.37 0.02,-0.83 0.03,-1.02c0.02,-0.34 0.02,-0.34 0.13,-0.46c0.06,-0.06 0.25,-0.2 0.41,-0.31c0.29,-0.2 0.29,-0.2 1.17,-0.2c0.48,0 0.95,0.01 1.04,0.02c0.14,0.02 0.24,0.06 0.62,0.27c0.25,0.13 0.5,0.27 0.55,0.31c0.1,0.06 0.1,0.06 0.1,0.61c0,0.54 0,0.54 -0.06,0.59c-0.03,0.03 -0.21,0.12 -0.39,0.2c-0.18,0.08 -0.42,0.2 -0.53,0.25c-0.2,0.1 -0.2,0.1 -0.22,1.3c-0.01,0.66 -0.02,2.43 -0.03,3.95c-0.01,2.42 -0.01,2.77 0.02,2.84c0.02,0.04 0.07,0.11 0.11,0.15c0.05,0.04 0.16,0.1 0.33,0.15c0.14,0.05 0.27,0.1 0.3,0.12c0.03,0.03 0.04,0.11 0.04,0.5c0,0.43 0,0.47 -0.05,0.51c-0.03,0.02 -0.22,0.14 -0.43,0.25c-0.38,0.2 -0.38,0.2 -0.63,0.2zm-8.46,-0.33c0.03,-0.04 0.03,-0.14 0.03,-0.42c0,-0.26 0.01,-0.38 0.03,-0.41c0.02,-0.02 0.12,-0.12 0.23,-0.21c0.11,-0.1 0.2,-0.18 0.2,-0.2c0,-0.02 -0.05,-0.02 -0.11,-0.01c-0.08,0.01 -0.18,0.05 -0.3,0.13c-0.1,0.07 -0.2,0.13 -0.21,0.15c-0.01,0.02 -0.02,0.12 -0.01,0.23c0,0.11 0.02,0.31 0.03,0.44c0.01,0.13 0.04,0.26 0.05,0.29c0.03,0.06 0.03,0.06 0.07,0.01zm8.32,0.04c0.01,0 0.03,-0.02 0.04,-0.04c0.01,-0.02 0.02,-0.15 0.02,-0.29c0,-0.14 0.01,-0.33 0.02,-0.42c0.02,-0.16 0.02,-0.18 -0.03,-0.22c-0.03,-0.02 -0.2,-0.12 -0.38,-0.21c-0.27,-0.14 -0.33,-0.18 -0.35,-0.23c-0.01,-0.04 -0.01,-0.58 0,-1.2c0.01,-0.62 0.03,-1.64 0.04,-2.26c0.01,-0.62 0.04,-1.9 0.05,-2.85c0.02,-0.94 0.02,-1.89 0.02,-2.09c-0.01,-0.38 -0.01,-0.38 -0.24,-0.03c-0.13,0.19 -0.26,0.4 -0.29,0.46c-0.03,0.06 -0.08,0.17 -0.11,0.24c-0.03,0.07 -0.09,0.25 -0.13,0.39c-0.04,0.14 -0.21,0.79 -0.38,1.45c-0.17,0.66 -0.34,1.33 -0.38,1.49c-0.04,0.16 -0.1,0.37 -0.13,0.46c-0.03,0.09 -0.06,0.17 -0.07,0.17c-0.01,0 -0.03,-0.05 -0.05,-0.12c-0.01,-0.07 -0.1,-0.48 -0.18,-0.92c-0.08,-0.44 -0.21,-1.08 -0.28,-1.41c-0.07,-0.34 -0.17,-0.83 -0.23,-1.09c-0.06,-0.27 -0.15,-0.71 -0.2,-0.98c-0.06,-0.27 -0.12,-0.58 -0.14,-0.68c-0.02,-0.1 -0.05,-0.18 -0.06,-0.18c-0.01,0 -0.03,0.03 -0.05,0.07c-0.02,0.04 -0.08,0.21 -0.14,0.38c-0.06,0.17 -0.16,0.45 -0.22,0.63c-0.06,0.18 -0.16,0.55 -0.23,0.83c-0.07,0.27 -0.15,0.63 -0.19,0.79c-0.04,0.16 -0.13,0.62 -0.21,1.03c-0.08,0.41 -0.15,0.78 -0.17,0.84c-0.01,0.06 -0.03,0.19 -0.04,0.29c-0.02,0.19 -0.02,0.19 0.04,0.14c0.03,-0.03 0.11,-0.17 0.18,-0.32c0.07,-0.15 0.2,-0.43 0.28,-0.62c0.08,-0.2 0.24,-0.57 0.34,-0.82c0.1,-0.26 0.25,-0.58 0.31,-0.72c0.07,-0.14 0.13,-0.25 0.15,-0.26c0.01,-0.01 0.07,0.41 0.13,0.92c0.06,0.51 0.13,1.17 0.16,1.47c0.03,0.29 0.07,0.73 0.1,0.97c0.03,0.24 0.07,0.58 0.09,0.76c0.02,0.18 0.06,0.57 0.08,0.86c0.02,0.3 0.04,0.83 0.05,1.2c0.01,0.52 0.01,0.67 -0.02,0.72c-0.02,0.03 -0.1,0.11 -0.17,0.17c-0.08,0.06 -0.2,0.16 -0.27,0.23c-0.07,0.06 -0.13,0.13 -0.13,0.15c0,0.02 0.01,0.04 0.02,0.05c0.01,0.01 0.13,0.03 0.26,0.04c0.13,0.02 0.34,0.03 0.47,0.03c0.13,0 0.26,-0.01 0.31,-0.03c0.04,-0.02 0.16,-0.04 0.26,-0.06c0.19,-0.03 0.19,-0.03 0.21,-1.59c0.01,-1.56 0.01,-1.56 0.11,-1.87c0.05,-0.17 0.15,-0.48 0.22,-0.69c0.07,-0.21 0.16,-0.52 0.22,-0.68c0.05,-0.17 0.16,-0.47 0.24,-0.68c0.08,-0.21 0.16,-0.4 0.17,-0.42c0.02,-0.03 0.03,-0.01 0.04,0.08c0.01,0.07 0.01,0.33 -0.01,0.58c-0.01,0.25 -0.03,0.68 -0.05,0.95c-0.01,0.27 -0.04,1.24 -0.05,2.14c-0.02,1.62 -0.02,1.65 -0.08,1.72c-0.03,0.04 -0.07,0.09 -0.08,0.13c-0.02,0.05 -0.02,0.07 0.02,0.11c0.04,0.04 0.16,0.07 0.43,0.13c0.21,0.04 0.39,0.09 0.4,0.11c0.01,0.02 0.02,0.12 0.02,0.24c0,0.11 0.01,0.24 0.03,0.28c0.01,0.04 0.06,0.13 0.1,0.19c0.04,0.07 0.09,0.12 0.1,0.12zm-13.47,-0.87c0.04,-0.01 0.41,-0.02 0.81,-0.02c0.71,0 0.73,0 0.73,-0.05c0,-0.03 -0.03,-0.08 -0.06,-0.12c-0.03,-0.04 -0.07,-0.09 -0.09,-0.12c-0.02,-0.03 -0.02,-0.1 0,-0.2c0.01,-0.08 0.06,-0.33 0.11,-0.56c0.05,-0.23 0.12,-0.54 0.16,-0.7c0.04,-0.16 0.14,-0.48 0.23,-0.72c0.08,-0.24 0.16,-0.45 0.18,-0.48c0.03,-0.05 0.07,-0.05 1.71,-0.05c0.93,0 1.69,-0.01 1.69,-0.02c0.01,-0.01 -0.01,-0.09 -0.05,-0.18c-0.03,-0.09 -0.08,-0.18 -0.1,-0.2c-0.03,-0.02 -0.41,-0.03 -1.52,-0.04c-0.82,0 -1.48,-0.01 -1.48,-0.02c0,-0.01 0.07,-0.38 0.16,-0.82c0.09,-0.44 0.24,-1.14 0.34,-1.54c0.1,-0.4 0.21,-0.91 0.25,-1.13c0.04,-0.22 0.12,-0.65 0.18,-0.97c0.06,-0.31 0.11,-0.61 0.11,-0.67c0.01,-0.05 0,-0.1 -0.01,-0.1c-0.01,0 -0.08,0.1 -0.15,0.22c-0.07,0.12 -0.19,0.35 -0.27,0.5c-0.08,0.15 -0.25,0.56 -0.39,0.91c-0.14,0.35 -0.25,0.67 -0.26,0.72c-0.01,0.09 -0.01,0.09 0.06,0.01c0.07,-0.08 0.07,-0.08 0.05,0.05c-0.01,0.07 -0.11,0.49 -0.23,0.94c-0.12,0.45 -0.22,0.84 -0.23,0.88c-0.01,0.04 -0.01,0.07 0,0.07c0.01,0 0.06,-0.05 0.1,-0.11c0.08,-0.11 0.08,-0.11 0.07,0.04c-0.01,0.08 -0.08,0.34 -0.15,0.57c-0.07,0.23 -0.16,0.53 -0.2,0.67c-0.03,0.14 -0.12,0.54 -0.19,0.89c-0.07,0.35 -0.18,0.83 -0.23,1.05c-0.06,0.23 -0.13,0.49 -0.16,0.58c-0.03,0.09 -0.06,0.18 -0.08,0.2c-0.02,0.02 -0.11,0.03 -0.29,0.03c-0.23,0 -0.28,0.01 -0.4,0.07c-0.07,0.04 -0.22,0.12 -0.33,0.2c-0.11,0.07 -0.2,0.14 -0.2,0.15c0,0.01 0.04,0.02 0.08,0.01zm4.36,-3.94c0.17,0.01 0.18,0 0.18,-0.04c0,-0.03 -0.04,-0.2 -0.09,-0.37c-0.05,-0.18 -0.16,-0.57 -0.24,-0.87c-0.09,-0.3 -0.21,-0.74 -0.27,-0.97c-0.06,-0.23 -0.13,-0.45 -0.14,-0.49c-0.02,-0.04 -0.04,-0.07 -0.05,-0.07c-0.01,0 -0.03,0.04 -0.05,0.1c-0.01,0.05 -0.06,0.23 -0.1,0.41c-0.04,0.17 -0.12,0.52 -0.18,0.79c-0.06,0.26 -0.15,0.7 -0.22,0.96c-0.06,0.27 -0.11,0.5 -0.1,0.51c0.01,0.02 0.15,0.03 0.54,0.04c0.29,0 0.61,0.01 0.71,0.01zm2.38,-5.4c0.02,-0.01 0.18,-0.14 0.36,-0.28c0.18,-0.14 0.35,-0.29 0.37,-0.32c0.03,-0.04 0.04,-0.12 0.05,-0.33c0.01,-0.28 0.01,-0.28 0.57,-0.28c0.56,0 0.56,0 0.7,-0.11c0.07,-0.06 0.15,-0.11 0.16,-0.11c0.01,0 0.02,-0.01 0.02,-0.02c0,-0.01 -0.04,-0.03 -0.1,-0.04c-0.05,-0.01 -0.43,-0.02 -0.83,-0.02c-0.74,0 -0.74,0 -0.79,0.07c-0.03,0.04 -0.17,0.19 -0.31,0.34c-0.26,0.27 -0.26,0.27 -0.26,0.68c0,0.22 0.01,0.41 0.02,0.42c0.01,0.01 0.03,0.01 0.04,0zm4.94,-0.23c0.01,0 0.04,-0.02 0.08,-0.04c0.04,-0.02 0.09,-0.06 0.12,-0.09c0.04,-0.05 0.05,-0.11 0.06,-0.43c0.01,-0.37 0.01,-0.37 0.57,-0.38c0.31,0 0.64,0 0.74,0.01c0.16,0.01 0.18,0.02 0.16,0.06c-0.01,0.02 -0.09,0.12 -0.16,0.22c-0.08,0.1 -0.14,0.2 -0.14,0.22c0,0.02 0.01,0.04 0.01,0.04c0.01,0 0.06,-0.02 0.11,-0.05c0.05,-0.03 0.16,-0.11 0.25,-0.19c0.09,-0.08 0.24,-0.25 0.34,-0.38c0.1,-0.13 0.18,-0.24 0.17,-0.25c-0.01,0 -0.45,0 -0.99,0.01c-0.97,0.01 -0.98,0.01 -1.1,0.08c-0.07,0.03 -0.14,0.09 -0.17,0.11c-0.04,0.05 -0.05,0.11 -0.06,0.55c-0.01,0.28 -0.01,0.5 0,0.5z" fill="black" fill-rule="evenodd" id="svg_2"/>
 </g>
</svg>